<?xml version="1.0" encoding="utf-8"?>
<!-- Generator: Adobe Illustrator 19.0.1, SVG Export Plug-In . SVG Version: 6.00 Build 0)  -->
<svg version="1.1" id="holidays" xmlns="http://www.w3.org/2000/svg" xmlns:xlink="http://www.w3.org/1999/xlink" x="0px" y="0px"
	 viewBox="-235 162 128 128" style="enable-background:new -235 162 128 128;" xml:space="preserve">
<style type="text/css">
	.st0{display:none;}
	.st1{display:inline;}
	.st2{fill:#0C0C0C;}
	.st3{display:inline;fill:#0C0C0C;}
	.st4{font-family:'Helvetica';}
	.st5{font-size:23.847px;}
	.st6{font-family:'Helvetica-Bold';}
	.st7{font-size:26.9402px;}
</style>
<g id="Sun" class="st0">
	<g class="st1">
		<path class="st2" d="M-171,194.6c-17.3,0-31.4,14-31.4,31.4s14,31.4,31.4,31.4c17.3,0,31.4-14,31.4-31.4S-153.7,194.6-171,194.6z
			 M-171,254.9c-15.9,0-28.9-12.9-28.9-28.9s13-28.9,28.9-28.9s28.9,12.9,28.9,28.9S-155.1,254.9-171,254.9z M-132.3,240.4l25.3-4
			l-22.9-12.6l21.5-13.8l-26.1-2.4l14.1-21.3l-26.1,9.1l4.2-26.7l-20.4,20.4l-8-27.1l-9,24.6l-17-19.1l1.7,26.1l-23.3-10.7l12,23.2
			l-25.5-0.4l20.4,16.4l-23.6,10l25.3,6.8l-17.6,18.6l25.9-3.9l-8.6,24l22.1-14l1.8,25.5l14.6-21.7l11.9,22.6l4.6-25.8l20,15.9
			l-6.2-25.4l24.7,6.5L-132.3,240.4z M-171,263c-20.5,0-37.1-16.6-37.1-37s16.6-37,37.1-37s37.1,16.6,37.1,37S-150.5,263-171,263z"
			/>
	</g>
</g>
<g id="tent">
	<g>
		<path class="st2" d="M-107,242.6l-6.1-2.3l-0.5,1.7c-2.5-1.3-9.3-5.1-17.3-12c-15.4-13.2-39.4-38.5-39.4-38.5
			s-25.2,24.7-41.7,38.9c-7.4,6.5-13.8,10.2-16.7,11.8l-0.3-1l-6,2.3l6.4,11.2l0,0l0,0l3.4,5.9l1.5-0.6l-1.5-5.3h108l-1.2,4.3
			l1.5,0.6L-107,242.6z M-148.3,249.8l-20.3-29.5v-20.2l42.5,49.7H-148.3z M-213.6,249.8l41.8-49.6v19.4l-21.5,30.2H-213.6z
			 M-170.4,223.2l18.3,26.6h-37.3L-170.4,223.2z M-228.2,243.7c2.8-1.5,9.7-5.5,17.9-12.6c11-9.4,24.5-22.1,32.8-30.1l-42.4,48.8
			h-6.6L-228.2,243.7z M-120.8,249.8l-35.8-41.7c7.2,7.2,16.1,15.8,24.2,22.7c8.8,7.5,16.2,11.6,18.4,12.8l-1.8,6.2H-120.8z"/>
	</g>
</g>
<g id="starfish" class="st0">
	<g class="st1">
		<path class="st2" d="M-107,211.5c-1.1-4.7-42.9-8.3-42.9-8.3s-17-38.6-21.1-38.6s-21.1,38.5-21.1,38.5s-42.4,5.6-42.9,8.4
			s29.9,32.1,29.9,32.1s-8.2,42.2-5.4,43.7s39.5-18.7,39.5-18.7s36.6,20.5,39.5,18.7c3-1.8-5.4-43.7-5.4-43.7S-106,216.8-107,211.5z
			 M-142.6,241.5c-1.1,2.9,5.8,33.8,4.5,35.1c-1.3,1.3-30.7-15-33-15c-2.3,0-31.2,16.2-33,15c-1.8-1.1,6.3-33.1,6.3-34.7
			s-24.6-23.7-24-26.7c0.7-2.9,33.1-6.3,33.1-6.3s15.3-31,17.6-31c2.3,0,17.6,31,17.6,31s35.8,5.4,35.8,6.7
			S-141.4,238.5-142.6,241.5z M-172.3,225.9c-3.7,0-6.7,3-6.7,6.7c0,3.7,3,6.7,6.7,6.7s6.7-3,6.7-6.7
			C-165.7,228.9-168.7,225.9-172.3,225.9z M-173.7,220.6c2.9,0,5.3-2.4,5.3-5.3c0-2.9-2.4-5.3-5.3-5.3c-2.9,0-5.3,2.4-5.3,5.3
			C-179,218.2-176.6,220.6-173.7,220.6z M-184.3,239.3c-2.9,0-5.3,2.4-5.3,5.3s2.4,5.3,5.3,5.3c2.9,0,5.3-2.4,5.3-5.3
			C-179,241.7-181.4,239.3-184.3,239.3z M-160.3,236.6c-2.9,0-5.3,2.4-5.3,5.3c0,2.9,2.4,5.3,5.3,5.3s5.3-2.4,5.3-5.3
			C-155,239-157.4,236.6-160.3,236.6z M-157.7,228.6c2.9,0,5.3-2.4,5.3-5.3c0-2.9-2.4-5.3-5.3-5.3s-5.3,2.4-5.3,5.3
			C-163,226.2-160.6,228.6-157.7,228.6z M-187,231.3c2.9,0,5.3-2.4,5.3-5.3s-2.4-5.3-5.3-5.3s-5.3,2.4-5.3,5.3S-190,231.3-187,231.3
			z M-171,194c1.5,0,2.7-1.2,2.7-2.7s-1.2-2.7-2.7-2.7s-2.7,1.2-2.7,2.7S-172.5,194-171,194z M-172.3,207.3c2.2,0,4-1.8,4-4
			s-1.8-4-4-4s-4,1.8-4,4S-174.6,207.3-172.3,207.3z M-131.4,216.7c-1.4,0.3-2.4,1.7-2.1,3.1c0.3,1.4,1.7,2.4,3.1,2.1
			c1.4-0.3,2.4-1.7,2.1-3.1C-128.6,217.3-130,216.4-131.4,216.7z M-143.7,216.4c-2.2,0.4-3.6,2.5-3.1,4.7c0.4,2.2,2.5,3.6,4.7,3.1
			c2.2-0.4,3.6-2.5,3.1-4.7C-139.4,217.4-141.5,216-143.7,216.4z M-196.8,264.8c-1.3-0.7-2.9-0.2-3.6,1.1c-0.7,1.3-0.2,2.9,1.1,3.6
			s2.9,0.2,3.6-1.1C-195,267.1-195.5,265.5-196.8,264.8z M-189.2,253.8c-1.9-1.1-4.4-0.4-5.4,1.6c-1.1,1.9-0.4,4.4,1.6,5.4
			c1.9,1.1,4.4,0.4,5.4-1.6C-186.5,257.2-187.2,254.8-189.2,253.8z M-213.1,217.1c-1.5-0.2-2.8,0.8-3,2.3c-0.2,1.5,0.8,2.8,2.3,3
			c1.5,0.2,2.8-0.8,3-2.3S-211.6,217.3-213.1,217.1z M-201.2,218.7c-2.2-0.3-4.2,1.2-4.5,3.4c-0.3,2.2,1.2,4.2,3.4,4.5
			s4.2-1.2,4.5-3.4C-197.5,221.1-199,219-201.2,218.7z M-147,263.3c-1.2,0.9-1.4,2.5-0.6,3.7c0.9,1.2,2.5,1.4,3.7,0.6
			c1.2-0.9,1.4-2.5,0.6-3.7C-144.2,262.6-145.9,262.4-147,263.3z M-148.3,252.6c-1.3-1.8-3.8-2.1-5.6-0.8c-1.8,1.3-2.1,3.8-0.8,5.6
			c1.3,1.8,3.8,2.1,5.6,0.8C-147.4,256.9-147,254.4-148.3,252.6z"/>
	</g>
</g>
<g id="passport_1_" class="st0">
	<g id="icon_3_" class="st1">
		<g>
			<path class="st2" d="M-184.1,245.1c0.8,0.2,1.6,0.2,2.3,0.2v-11.1c-2.4,0.2-5,0.7-7.5,1.6C-187.9,239.1-186.2,242.3-184.1,245.1z
				 M-189.3,209c2.4,0.9,5.1,1.5,7.6,1.6v-11.1c-0.7,0-1.5,0.1-2.3,0.2C-186.1,202.5-187.9,205.6-189.3,209z M-190,234
				c2.8-1.2,5.7-1.9,8.2-2.1v-8.4h-10.5C-192.2,226.9-191.3,230.4-190,234z M-192.3,221.3h10.5v-8.4c-2.5-0.1-5.4-0.9-8.2-2.1
				C-191.3,214.3-192.2,217.8-192.3,221.3z M-194.5,223.5h-9c0.2,5.6,2.3,10.5,5.7,14.3c1.6-1.1,3.6-2.2,5.8-3.1
				C-193.6,230.7-194.5,226.6-194.5,223.5z M-192,210.1c-2.2-1-4.2-2-5.8-3.1c-3.4,3.8-5.5,8.7-5.7,14.3h9
				C-194.4,218.1-193.5,214.1-192,210.1z M-187,200.4c-3.5,0.9-6.6,2.7-9.2,5c1.3,1,3,1.9,5,2.7C-190.2,205.4-188.7,202.6-187,200.4
				z M-165.1,205.5c-2.6-2.4-5.7-4.1-9.2-5c1.6,2.2,3.1,5,4.2,7.8C-168.2,207.4-166.4,206.4-165.1,205.5z M-196.2,239.4
				c2.6,2.4,5.7,4.1,9.2,5c-1.7-2.3-3.1-5-4.2-7.8C-193.1,237.4-194.8,238.3-196.2,239.4z M-174.3,244.3c3.5-0.8,6.6-2.6,9.2-5
				c-1.4-1-3.1-2-5-2.8C-171.2,239.4-172.6,242-174.3,244.3z M-169.3,210.1c1.5,4,2.4,8,2.5,11.2h9c-0.2-5.6-2.3-10.5-5.7-14.3
				C-165.1,208.1-167.1,209.2-169.3,210.1z M-177.3,199.8c-0.8-0.2-1.6-0.2-2.3-0.2v11.1c2.4-0.2,5.1-0.7,7.6-1.6
				C-173.4,205.6-175.3,202.5-177.3,199.8z M-169.3,234.7c2.2,1,4.2,2,5.8,3.1c3.4-3.8,5.5-8.7,5.7-14.3h-9
				C-166.9,226.6-167.8,230.7-169.3,234.7z M-120.9,169.4l-71.2-7.4c-2.9-0.3-5.5,1.8-5.8,4.7l-1.2,11.9h-17.4
				c-2.9,0-5.3,2.4-5.3,5.3v100.7c0,2.9,2.4,5.3,5.3,5.3h71.6c2.9,0,5.3-2.4,5.3-5.3v-8l7.4,0.8c2.9,0.3,5.5-1.8,5.8-4.7l10.1-97.5
				C-115.9,172.3-118,169.7-120.9,169.4z M-180.7,247.6c-14.1,0-25.2-11.1-25.2-25.2s11.1-25.2,25.2-25.2
				c14.1,0,25.2,11.1,25.2,25.2S-166.6,247.6-180.7,247.6z M-121.7,177.3l-9.6,92.2c-0.1,1.5-1.5,2.5-2.9,2.4l-5.4-0.6V184
				c0-2.9-2.4-5.3-5.3-5.3h-48.9l0.9-8.7c0.2-1.5,1.5-2.5,2.9-2.4l65.9,6.8C-122.6,174.6-121.6,175.9-121.7,177.3z M-171.3,210.9
				c-2.8,1.2-5.7,1.9-8.2,2.1v8.4h10.5C-169.2,217.8-170,214.3-171.3,210.9z M-179.6,234.2v11.1c0.7,0,1.5-0.1,2.3-0.2
				c2.1-2.7,3.9-6,5.2-9.3C-174.6,234.9-177.2,234.3-179.6,234.2z M-169,223.5h-10.6v8.4c2.5,0.1,5.4,0.9,8.2,2.1
				C-170,230.4-169.2,226.9-169,223.5z"/>
		</g>
	</g>
	<text transform="matrix(1.0003 0 0 1 -211.1533 276.7363)" class="st3 st4 st5">PASS</text>
</g>
<g id="Life_Preserver" class="st0">
	<g class="st1">
		<path class="st2" d="M-112,212.7c-5.7-21.9-23.6-38.9-46-43.3l1-7.4h-28l1.1,8c-21.1,5.3-37.8,22-43.1,43.1l-8-1.1v28l7.4-1
			c4.4,22.4,21.4,40.3,43.3,46l-0.7,5h28l-0.6-4.3c23.2-4.7,41.5-23,46.2-46.2l4.4,0.5v-28L-112,212.7z M-158.9,175.6
			c19.7,4,35.4,18.8,40.7,38l-18.8,2.6c-3.8-11-13.1-19.4-24.5-22.1L-158.9,175.6z M-183,176.3l2.7,18.7
			c-10.2,3.4-18.3,11.5-21.7,21.7l-18.8-2.7C-215.9,195.6-201.4,181.1-183,176.3z M-183.4,278.7c-19.2-5.2-34-21-38-40.6l18.6-2.7
			c2.6,11.5,11.1,20.7,22,24.6L-183.4,278.7z M-163.2,246.3h-15.6l-1.1,7.4c-8.2-3.3-14.5-10.4-16.8-19.1l5.3-0.8v-15.6l-4.4-0.6
			c2.8-7.5,8.8-13.4,16.3-16.3l0.6,4.4h15.6l0.8-5.4c8.7,2.2,15.8,8.6,19.1,16.8l-7.3,1v15.6l8.4,1.2c-2.7,9.6-10.2,17.1-19.7,19.7
			L-163.2,246.3z M-158.5,279.5l-2.7-18.6c12.3-3.1,21.9-12.7,25-25l18.6,2.7C-121.8,259-138,275.2-158.5,279.5z"/>
	</g>
</g>
<g id="hotel_1_" class="st0">
	<g id="icon_5_" class="st1">
		<g>
			<path class="st2" d="M-113.7,195.7h-114.6c-3.7,0-6.7,3-6.7,6.7v47.1c0,3.7,3,6.7,6.7,6.7h114.5c3.7,0,6.7-3,6.7-6.7v-47.1
				C-107,198.7-110,195.7-113.7,195.7z M-111.5,247.3c0,2.5-2,4.5-4.5,4.5h-110c-2.5,0-4.5-2-4.5-4.5v-42.6c0-2.5,2-4.5,4.5-4.5h110
				c2.5,0,4.5,2,4.5,4.5V247.3z"/>
		</g>
	</g>
	<text transform="matrix(1.0003 0 0 1 -217.0342 236.1035)" class="st3 st6 st7">HOTEL</text>
</g>
<g id="fire" class="st0">
	<g class="st1">
		<path class="st2" d="M-125.4,252.9l-8.2-9.8l-36.1,16.1l-39.5-16.4l-5.3,12.5l27.7,11.5l-29.8,13.3l8.2,9.8l37.3-16.6l38.5,16
			l5.3-12.5l-26.6-11.1L-125.4,252.9z M-171,249.1c1.1-5.3,4.8-11.7,8.8-16.6c1.8-2.4,6.8-7.9,8.4-10.8c2-3.5,4.4-6.9,4.4-17.9
			c0-14.8-9.9-35.8-15.4-41.8c0,8-2.2,12.6-6,17.9c-2.7,3.5-17,22.3-17,35.8C-187.9,234-179.1,243.1-171,249.1z M-144.7,210.8
			c-0.4,6-7.5,16.6-12.6,22.5c-2,2.2-6,8.4-6,11c0,1.6-0.5,2.7,0,4.4c5.9-3.1,12.1-3.1,17-5.5c3.5-1.6,9.5-7.1,10.6-12.4
			c4-14.6-2.7-33-10.1-39.1C-144.1,200.4-144.3,207.3-144.7,210.8z M-178,248.6c-4.9-3.5-12.3-9-14.1-18.1
			c-0.4-3.1-1.1-7.1-0.9-11.7c0.2-4.8,0.7-9.5,1.8-13c-7.5,6-11,14.2-11,21.2S-196.9,248.4-178,248.6z"/>
	</g>
</g>
<g id="sunglasses" class="st0">
	<g class="st1">
		<path class="st2" d="M-158.5,225.3c0,9.5,5,15.2,17.2,14.7c10.6-0.4,19.6-10.3,19.6-17.2c0-1.7,0-9.8,0-9.8s-6.8-2.5-14.7-2.5
			C-147.9,210.5-158.5,217.1-158.5,225.3z M-207.5,210.5c-9.1,0-14.7,2.5-14.7,2.5s0,8.7,0,9.8c0.2,5.3,9,16.7,19.6,17.2
			c12.2,0.5,17.2-5.2,17.2-14.7C-185.5,217.1-196,210.5-207.5,210.5z M-108,242.5l-9.6-7.1c4.6-7.5,5.8-15,5.8-15v-12.3
			c0,0-11.3-6.8-22.1-7.4c-11.3-0.6-22.1,7.4-22.1,7.4l-12.3,7.4h-7.4c0,0-13.5-13-27-14.7c-14.6-1.9-29.4,7.4-29.4,7.4v12.3
			c0,0,2.1,8.4,7.2,16.3l-9.1,7c0,0-1.9,4.6-0.6,6c1.2,1.2,5.7,1.8,5.7,1.8l9.9-7.8c3.7,3.4,8.3,5.8,13.9,6
			c25.9,0.9,29.4-24.5,29.4-24.5h4.9c0,0,7.4,27.8,31.9,24.5c6.7-0.9,11.8-3.8,15.6-7.5l10.1,7.4c0,0,4.5-0.5,5.7-1.7
			C-106.1,246.8-108,242.5-108,242.5z M-180.5,227.7c-1.1,9.4-9.3,17.2-20.9,17.2c-9.9,0-22.2-6.6-25.1-21.5c-0.5-2.4-0.7-5.1-0.6-8
			c0.2-9.5,10.6-9.8,22.1-9.8S-178.9,213.4-180.5,227.7z M-142.4,244.9c-11.5,0-19.7-7.8-20.8-17.2c-1.4-12.2,18.8-21.8,24.4-22.1
			c9-0.4,21.8,2,22,9.8C-116.1,235.9-131,244.9-142.4,244.9z"/>
	</g>
</g>
<g id="surfing_x5F_boat" class="st0">
	<path class="st3" d="M-222.7,266.8v-1.3C-222.7,265.5-222.8,266-222.7,266.8z M-146.5,181.1h-2.7l-5.4,10.9h10.9L-146.5,181.1z
		 M-141,202.9h-19.1c0,0-4.4,7.5-8.2,16.3c-4.3,10.2-5.4,21.8-5.4,21.8h40.8L-141,202.9z M-146.5,181.1h-2.7l-5.4,10.9h10.9
		L-146.5,181.1z M-141,202.9h-19.1c0,0-4.4,7.5-8.2,16.3c-4.3,10.2-5.4,21.8-5.4,21.8h40.8L-141,202.9z M-193,279.1
		c-25.9,0-29.3-8.9-29.7-12.3v6.9c0,0-2.4,13.6,29.7,13.6c57.9,0,73.8,2.7,73.8,2.7v-8.2C-119.2,281.8-135.1,279.1-193,279.1z
		 M-141,202.9h-19.1c0,0-4.4,7.5-8.2,16.3c-4.3,10.2-5.4,21.8-5.4,21.8h40.8L-141,202.9z M-146.5,181.1h-2.7l-5.4,10.9h10.9
		L-146.5,181.1z"/>
	<path class="st3" d="M-145.8,162c0,0-18.9,23.5-29.1,52.4c-9.1,25.7-12.4,64.7-12.4,64.7h8.2c0,0-1.2-3.8,2.7-5.4
		c12.6-5.1,43.5-14.8,49-21.8C-116.9,238.6-145.8,162-145.8,162z M-146.5,172.9c0,0,2.5,9.7,5.6,21.8h-18.7L-146.5,172.9z
		 M-149.2,257.3c-10.6,6-30,8.2-30,8.2s0-6.7,1.3-16.3h44.2C-137.3,252-143.1,253.9-149.2,257.3z M-130,243.7h-47.1
		c1.2-7.4,3.1-16,6.1-24.5c2.3-6.6,8.2-19.1,8.2-19.1h23.4c3.8,15.2,8.1,32.1,9.3,38.1C-129.7,240.4-129.7,242.2-130,243.7z"/>
</g>
<g id="boat" class="st0">
	<g class="st1">
		<path class="st2" d="M-153.5,226c32.4-1.3,46.5-5.8,46.5-5.8s-8-4.2-19.4-5.8c-15.9-2.2-25.2-1.9-25.2-1.9l-29.1-9.7l-36.8,5.8
			l-1.9,5.8h7.8l-3.9,7.8h-9.8l-1.9,3.8C-227.2,226-192.3,227.6-153.5,226z M-200.1,208.6l19.4-1.9l23.3,7.8c0,0-4.3,2.9-9.7,3.9
			c-5.2,0.9-11.6,0-11.6,0l-7.8-3.9l-15.5-2.1L-200.1,208.6z M-229.2,229.9c0,0-4.6,10.6-5.6,13.1c-0.1,0.3-0.2,0.4-0.2,0.4l7.8-5.8
			c0,0,4.9,5.8,9.7,5.8c3.9,0,7.8-5.8,7.8-5.8s5.1,5.8,9.7,5.8c5,0,9.7-5.8,9.7-5.8s3.6,5.8,7.8,5.8c4.5,0,9.7-5.8,9.7-5.8
			s3.4,5.8,7.8,5.8s9.7-5.8,9.7-5.8s3.2,5.8,7.8,5.8c4.2,0,9.7-5.8,9.7-5.8l3.1,3.4c16.2-5.3,27.9-18.9,27.9-18.9s-8.6,4.4-34.9,5.8
			C-184.3,230.2-229.2,229.9-229.2,229.9z M-128.3,245.4c-4.7,0-9.7-5.8-9.7-5.8s-5.5,5.8-9.7,5.8c-4.5,0-7.8-5.8-7.8-5.8
			s-5.3,5.8-9.7,5.8c-4.3,0-7.8-5.8-7.8-5.8s-5.2,5.8-9.7,5.8c-4.2,0-7.8-5.8-7.8-5.8s-4.7,5.8-9.7,5.8c-4.6,0-9.7-5.8-9.7-5.8
			s-3.9,5.8-7.8,5.8c-4.8,0-9.7-5.8-9.7-5.8l-7.6,7.7v1.9h118.3v-3.9l-3.9-5.8C-120.6,239.6-124.3,245.4-128.3,245.4z"/>
	</g>
</g>
<g id="Volleyball" class="st0">
	<path class="st3" d="M-115.9,171v5.9h-110.2V171h-8.9v107.1h8.9v-44.7H-116V278h8.9V171H-115.9z M-217.1,227.5h-9v-8.9h8.9
		L-217.1,227.5L-217.1,227.5z M-217.1,215.6h-9v-8.9h8.9L-217.1,215.6L-217.1,215.6z M-217.1,203.7h-9v-8.9h8.9L-217.1,203.7
		L-217.1,203.7z M-217.1,191.8h-9v-8.9h8.9L-217.1,191.8L-217.1,191.8z M-202.3,227.5h-11.9v-8.9h11.9
		C-202.3,218.6-202.3,227.5-202.3,227.5z M-202.3,215.6h-11.9v-8.9h11.9C-202.3,206.7-202.3,215.6-202.3,215.6z M-202.3,203.7h-11.9
		v-8.9h11.9C-202.3,194.8-202.3,203.7-202.3,203.7z M-202.3,191.8h-11.9v-8.9h11.9C-202.3,182.9-202.3,191.8-202.3,191.8z
		 M-187.4,227.5h-11.9v-8.9h11.9V227.5z M-187.4,215.6h-11.9v-8.9h11.9V215.6z M-187.4,203.7h-11.9v-8.9h11.9V203.7z M-187.4,191.8
		h-11.9v-8.9h11.9V191.8z M-172.5,227.5h-11.9v-8.9h11.9V227.5z M-172.5,215.6h-11.9v-8.9h11.9V215.6z M-172.5,203.7h-11.9v-8.9
		h11.9V203.7z M-172.5,191.8h-11.9v-8.9h11.9V191.8z M-157.6,227.5h-11.9v-8.9h11.9V227.5z M-157.6,215.6h-11.9v-8.9h11.9V215.6z
		 M-157.6,203.7h-11.9v-8.9h11.9V203.7z M-157.6,191.8h-11.9v-8.9h11.9V191.8z M-142.7,227.5h-11.9v-8.9h11.9V227.5z M-142.7,215.6
		h-11.9v-8.9h11.9V215.6z M-142.7,203.7h-11.9v-8.9h11.9V203.7z M-142.7,191.8h-11.9v-8.9h11.9V191.8z M-127.8,227.5h-11.9v-8.9
		h11.9C-127.8,218.6-127.8,227.5-127.8,227.5z M-127.8,215.6h-11.9v-8.9h11.9C-127.8,206.7-127.8,215.6-127.8,215.6z M-127.8,203.7
		h-11.9v-8.9h11.9C-127.8,194.8-127.8,203.7-127.8,203.7z M-127.8,191.8h-11.9v-8.9h11.9C-127.8,182.9-127.8,191.8-127.8,191.8z
		 M-115.9,227.5h-8.9v-8.9h8.9V227.5z M-115.9,215.6h-8.9v-8.9h8.9V215.6z M-115.9,203.7h-8.9v-8.9h8.9V203.7z M-115.9,191.8h-8.9
		v-8.9h8.9V191.8z"/>
	<path class="st3" d="M-172.5,239.4c-11.5,0-20.8,9.3-20.8,20.8s9.3,20.8,20.8,20.8s20.8-9.3,20.8-20.8
		C-151.7,248.7-161,239.4-172.5,239.4z M-183.2,246c1.8,1,5.3,3,7.7,5.3c1.9,1.9,2.9,4.8,3.4,6.2l-4.7,2l-11-8.4
		C-186.5,248.9-185.2,247.5-183.2,246z M-190.3,260.2c0-1.9,0-2.4,0.5-4.1l10.7,8.2l24.6-10.7l-2.1-3.3l-9,4.4
		c-0.8-0.8-1.4-4.1-3.8-6.4c-2.2-2.2-5.8-4.3-7.7-5.3c1.5-0.4,3.1-0.6,4.7-0.6c8.9,0,16.3,6.5,17.6,15.1c-0.8,0.7-4.1,3.6-8.7,5.8
		c-3.9,1.8-10.4,3-12.9,3.4c0.2-2.3,0.9-4.4,1-4.6l-3.5,1.5c0,0-1.1,4.3,0.6,8.7c0.9,2.3,1.8,4.5,3.3,5.7
		C-182,277.1-190.3,269.7-190.3,260.2z M-169.9,277.9c-0.9-0.6-3.9-2.7-5.6-5.7l0,0c0,0,7.2-1.2,11.9-3c3.3-1.2,7.5-4.7,8.6-5.7
		C-156.3,270.9-162.3,276.7-169.9,277.9z"/>
</g>
<g id="sleeper" class="st0">
	<g class="st1">
		<path class="st2" d="M-177.8,224.8c-1.1-15.6,1.1-17.8-1.3-31.2c-2.5-13.4-15.2-24.8-29.6-22.9c-14.4,1.9-21.3,12.5-22.7,27
			c0,0-2.6,18.1,1.2,33.3c4.4,17.3,10.3,35.5,10.3,35.5c1.9,14.5,12.4,25.1,26.8,23.2c14.4-1.9,17.6-21.2,17.1-29
			C-176.4,253.2-176.6,242.3-177.8,224.8z M-181.4,261.5c-0.5,7.9-1,21.3-12.4,22.8c-11.4,1.5-19.1-6.9-20.6-18.4
			c0,0-5.6-18.9-10.2-34.9c-4.4-15.3-1.3-34-1.3-34c2.2-11.4,6.5-19.2,17.9-20.7c11.4-1.5,21.7,6.9,23.3,18.1
			c1.6,11.1,0.6,15.8,1.4,31.9C-182.4,243.5-180.9,253.6-181.4,261.5z M-113,185.8c-3.3-14.2-11.9-23.8-26.5-23.8
			c-14.7,0-25.9,13-26.6,26.5c-0.7,13.6,1.8,15.5,2.8,31.1c1.1,17.5,2.3,28.4,2.8,35.9c0.5,7.8,6.3,26.5,20.9,26.5
			c14.7,0,23.7-11.9,23.7-26.5c0,0,3.5-18.9,5.6-36.6C-108.4,203.4-113,185.8-113,185.8z M-115.8,219.7c-2.5,16.5-5.6,35.9-5.6,35.9
			c0,11.6-6.6,20.9-18.2,20.9s-13.8-13.2-15.4-20.9c-1.6-7.8-1.4-18-2.8-35.2c-1.3-16-3-20.5-2.8-31.8c0.2-11.3,9.4-20.9,20.9-20.9
			c11.6,0,17.3,7.1,21,18.2C-118.6,185.8-113.4,203.9-115.8,219.7z M-135.3,187.2v-5.6h-5.6v5.6c0,0-8.4,3-11.2,16.8
			c-2.8,14.2,0,39.1,0,39.1h5.6c0,0-2.1-23.4,0-36.3c2-12.2,8.4-16.8,8.4-16.8s12.5,14.5,14,27.9c1.3,11.5-5.6,25.1-5.6,25.1h5.6
			c0,0,4.1-8.7,5.6-19.5c0.9-7.1-0.2-11.3-5.6-22.3C-129.5,190.1-135.3,187.2-135.3,187.2z M-204.1,195.4l-0.7-5.5l-5.5,0.7l0.7,5.5
			c0,0-5.3,3.7-9.2,15.3c-3.8,11.6-4.4,15.9-2.6,22.9c2.9,10.6,8.1,18.7,8.1,18.7l5.5-0.7c0,0-8.5-12.6-8.8-24.2
			c-0.3-13.5,10.1-29.5,10.1-29.5s6.8,3.3,10.4,15.2c3.8,12.5,4.8,36.4,4.8,36.4l5.5-0.7c0,0-0.5-25.4-5.1-39.1
			C-195.4,197-204.1,195.4-204.1,195.4z"/>
	</g>
</g>
<g id="umbrella_1_" class="st0">
	<g class="st1">
		<path class="st2" d="M-156,241.8l-2.9-3.7l-4.2,7.2l2.9,3.7L-156,241.8z M-158.2,232.6l-2.9-3.7l-4.2,7.2l2.9,3.7L-158.2,232.6z
			 M-160.3,223.4l-2.9-3.7l-4.2,7.2l2.9,3.7L-160.3,223.4z M-176,230.7h-9.4l-9.4,18.9H-235v9.4h7.1l-4.7,18.9h4.7l7.1-18.9h23.6
			l9.4,18.9h4.7l-7-18.9h2.4L-176,230.7z M-171.3,181.2c-0.5,0.1,0-7.1,0-7.1l-9.4,4.7l4.7,4.7c-25.7,7.6-48.5,36.4-47.2,44.8
			c0.8-0.1,5.3-4.9,9.4-4.7c4.1,0.1,10.6,2.9,14.2,2.4c3.5-0.6,6.7-4.6,9.4-4.7c2.7-0.1,6.2,5.5,11.9,4.8c4.4-0.6,10.7-7,14.9-8.2
			c4.2-1.2,10.9,0.4,15.7-1.3c3.8-1.3,8.9-8.5,8.9-8.5s10.5,2.6,14.7-3.3c2.1-3,4.4-6,7.1-7.1c4.9-2,10.1-0.5,10-1.1
			C-107.6,193.5-144,175.3-171.3,181.2z M-197.2,216.6c0,0-4.4,2.4-6.6,2.4c-2.5,0-5.8-1-5.2-2.4c5.7-15,28.3-28.3,28.3-28.3
			C-186.6,194.7-197.2,216.6-197.2,216.6z M-179.3,220.1c-3,0.6-6.1-1.1-6.1-1.1s0.4-4.7,1.2-13.4c0.9-9.9,5.9-17.3,5.9-17.3
			l2.4-2.4l4.7,30.7C-171.3,216.6-176.4,219.5-179.3,220.1z M-150,211.8c-3,1.2-9.4,0-9.4,0l-11.9-28.3h2.4c0,0,11.6,5.9,16.8,14.4
			c4.5,7.4,6.8,9.2,6.8,9.2S-147.2,210.7-150,211.8z M-128.6,201.1c-2.4,1.8-7.2,1.3-7.2,1.3s-5.2-4.4-7.1-7.1
			c-7.2-9.6-23.6-11.8-23.6-11.8s26.6-1,37.8,9.4C-122.8,198.5-126.3,199.4-128.6,201.1z M-151.7,260.3l-2.9-3.7l-4.2,7.2l2.9,3.7
			L-151.7,260.3z M-153.8,251.1l-2.9-3.7l-4.3,7.1l2.9,3.7L-153.8,251.1z M-156.7,273l2.9,3.7l4.2-7.2l-2.9-3.7L-156.7,273z"/>
	</g>
</g>
<g id="drinks" class="st0">
	<g class="st1">
		<path class="st2" d="M-161,180.2l30.2-16.2l-8.5-2l-27.1,14.9l-2.3,11.9h-42.5l8.9,101.2h53.6l8.9-101.2h-22.9L-161,180.2z
			 M-145.7,194.7l-8.9,89.3h-41.7l-8.9-89.3h35.5l-5.7,29.8h-23.9l6,56.6h35.7l6-56.6h-18l5.8-29.8
			C-163.8,194.7-145.7,194.7-145.7,194.7z M-182.9,251.3c-4.1,0-7.4-3.3-7.4-7.4c0-4.1,3.3-7.4,7.4-7.4c4.1,0,7.4,3.3,7.4,7.4
			C-175.5,248-178.8,251.3-182.9,251.3z M-175.5,266.2c0,3.3-2.7,6-6,6s-6-2.7-6-6c0-3.3,2.7-6,6-6
			C-178.1,260.2-175.5,262.9-175.5,266.2z"/>
	</g>
</g>
<g id="google" class="st0">
	<g class="st1">
		<path class="st2" d="M-224.6,232.2l1.2,2.1l16.7-9.7l-1.2-2.1L-224.6,232.2z M-128.7,229.6h-7.3v7.2h7.2v-7.2H-128.7z
			 M-212.7,220.1l-16.8,9.7l1.2,2.1l16.7-9.7L-212.7,220.1z M-126.3,241.7l-14.5,16.9h-33.8v7.2h38.6l16.9-21.7v-62.8h-7.2
			C-126.3,181.3-126.3,241.7-126.3,241.7z M-136,244.1c0,0,0-15,0-23.4c0-2.5-0.5-5.6-5.4-5.6c-17.6,0-73,0-89.1,0
			c-4.3,0-4.5,4-4.5,5.3c0,8.4,0,23.6,0,23.6c0,2.7,4.6,7.2,7.2,7.2c0,0,11.4,0,31.6,0c3.6,0,6.9-11.3,10.7-11.3
			c3.2,0,5.7,11.3,8.9,11.3c21.5,0,33.4,0,33.4,0C-140.6,251.4-136,246.8-136,244.1z M-193.9,237.7c0,4.9-3.7,8.9-8.2,8.9H-222
			c-4.5,0-8.2-4-8.2-8.9v-8.9c0-4.9,3.7-8.9,8.2-8.9h19.8c4.5,0,8.2,4,8.2,8.9v8.9H-193.9z M-168.8,246.5c-4.5,0-8.2-4-8.2-8.9v-8.9
			c0-4.9,3.7-8.9,8.2-8.9h19.8c4.5,0,8.2,4,8.2,8.9v8.9c0,4.9-3.7,8.9-8.2,8.9H-168.8z M-140.8,229.9l-15.8-9.9l-1.1,2.1l15.7,9.9
			L-140.8,229.9z M-116.7,229.6v7.2h9.7v-7.2H-116.7z M-165,224.5l15.7,9.9l1.1-2.1l-15.7-9.9L-165,224.5z M-185.5,253.8
			c-4.7,0-8.5,3.8-8.5,8.5c0,4.7,3.8,8.5,8.5,8.5s8.5-3.8,8.5-8.5C-177,257.6-180.8,253.8-185.5,253.8z"/>
	</g>
</g>
<g id="ice_cream" class="st0">
	<g class="st1">
		<path class="st2" d="M-202.4,221.7v17.1L-191,290h39.8l11.4-51.2v-17.1C-139.8,221.7-202.4,221.7-202.4,221.7z M-156.8,284.3
			h-28.5l-1.4-5.7h31.3L-156.8,284.3z M-154.7,275.8h-32.7l-2.8-11.4h38.4L-154.7,275.8z M-150.4,258.7h-41.3l-5-19.9h51.2
			L-150.4,258.7z M-145.5,233.1h-51.2v-5.7h51.2V233.1z M-136.9,213.2c-1.1-5.5-5.7-11.9-11.4-11.4c6.4-15.9-8.5-17.2-8.5-17.1
			c4.5-11.2-5.9-22.7-14.3-22.7c-8.4,0-7.4,6.6-7.4,6.6s4.5-0.9,4.5,2.6c0,3.6-8.3,7.5-8.3,7.5s-6.3,3.3-8.7,8.9
			c-1.8,4.1,0,7.9,0,11.4c0,0.6-12.9,1-14.2,13.8c0,6,2.8,9,2.8,9s2.2,0,5.7,0c0,0-3.9-7.5-2.8-11.4c1.6-5.7,17.1-5.7,17.1-5.7
			s-4.6-12,0-17.1c0.6-0.7,2.1-1.9,3.8-3.3c0.5-0.4,1-0.8,1.5-1.2c3.8-3.1,8.2-7.1,8.9-9.7c0.8-2.8-2.8-5.7-2.8-5.7s7,4,8.5,8.5
			c1.3,4,0,11.4,0,11.4s7.2,1,8.5,5.7c1.5,5.2,0,11.4,0,11.4s10,5,11.4,8.5c1.4,3.6-5.7,8.5-5.7,8.5c5.2,0,8.6,0,8.5,0
			C-139.8,220-136.2,217-136.9,213.2z M-164.7,188.8l-14.3,9.4l1.6,2.4l14.3-9.4L-164.7,188.8z"/>
	</g>
</g>
<g id="ball" class="st0">
	<g class="st1">
		<path class="st2" d="M-171,162c-35.3,0-64,28.7-64,64s28.7,64,64,64s64-28.6,64-64C-107,190.7-135.7,162-171,162z M-121.1,197.9
			c-2.1-2.2-4.5-4.4-7.3-6.6c-10.6-8.1-21.3-9.8-26.6-10c-1-2.3-3.2-4.2-6.1-5.7c1.9-1.5,4.5-3,6.9-4.3
			C-140,175.6-128.2,185.3-121.1,197.9z M-171,168.7c3.8,0,7.5,0.4,11.1,1.1c-1.9,1.4-3.9,2.8-5.5,4.2c-2.2-0.6-4.5-0.9-7-0.9
			c-1,0-2.1,0.1-3.1,0.2c-1.5-1.3-3.4-2.6-5.4-3.7C-177.6,169-174.3,168.7-171,168.7z M-187.5,171.2c2.1,1,4.4,2.2,6.2,3.4
			c-4.5,1.6-7.8,4.3-8.8,7.6c-5.8,1-15.4,3.5-23.4,9.5c-3,2.2-5.5,4.4-7.6,6.6C-214,185.4-201.9,175.5-187.5,171.2z M-228.3,226
			c0-4,0.4-7.9,1.2-11.6c3.2-6,8.3-13,16.3-19.3c6.6-5.1,15.2-7.8,20.5-9.1c0.6,2.3,2.3,4.3,4.7,5.9c-7.5,10.2-21.6,31.5-21.6,49.1
			c0,13.7,3.8,26.2,7,34.3C-217,265.3-228.3,247-228.3,226z M-171,283.3c-7.8,0-15.3-1.6-22.1-4.4c-3.3-7.6-8.5-22.1-8.5-38.2
			c0-16.4,12.6-36.1,20.2-46.7c2.7,0.9,5.7,1.5,9,1.5c4.4,0,8.4-1,11.6-2.6c7.6,9.7,20.4,28.4,20.4,45s-5.5,32.9-8.8,41.1
			C-155.9,281.7-163.3,283.3-171,283.3z M-142.3,275.5c3.2-8.8,7.4-22.9,7.4-37.3c0-18.3-15-38.8-22.4-47.9c1.7-1.6,2.7-3.4,2.9-5.4
			c5.4,1.1,15.4,3.7,23.2,9.9c7.9,6.3,13,13.4,16.3,19.4c0.8,3.8,1.2,7.8,1.2,11.8C-113.7,247.1-125.2,265.6-142.3,275.5z"/>
	</g>
</g>
<g id="tree" class="st0">
	<g class="st1">
		<path class="st2" d="M-127,190.3c-7.6-4.4-17.3-1.8-21.7,5.8c-4.4,7.6-1.8,17.3,5.8,21.7c7.6,4.4,17.3,1.8,21.7-5.8
			S-119.4,194.7-127,190.3z M-124.6,210c-3.3,5.7-10.6,7.6-16.3,4.4c-5.7-3.3-7.6-10.6-4.4-16.3c3.3-5.7,10.6-7.6,16.3-4.4
			C-123.3,197.1-121.4,204.3-124.6,210z M-196.7,239c0,2.6,0.2,5.2,0.4,7.7h8c-0.3-2.6-0.4-5.2-0.5-7.9h-7.9
			C-196.7,238.9-196.7,238.9-196.7,239z M-185.4,262.7c-0.6-2.4-1.7-6.7-2.5-12h-8c0.8,5.3,1.9,9.7,2.5,12c-0.4,0-0.9,0.1-1.3,0.1
			c-0.6-1.6-1.8-5.1-3.3-8.8l-4.1,1.8c1.3,3.1,2.4,6,2.9,7.5c-9.9,1.6-15.4,5.7-15.4,11.1c8.9,0,7.4,0,23.8,0s21.7,0,27.8,0
			C-163,267.9-171.1,263.3-185.4,262.7z M-208.9,242.8c0.8,1.1,1.6,2.2,2.3,3.5l4.1-2c-0.7-1.3-1.6-2.5-2.4-3.6L-208.9,242.8z
			 M-107,198.3l-0.5-1.9l-9.6,2.6l0.5,1.9L-107,198.3z M-210.4,240.9l4-2.1c-3-3.5-5.8-5.9-5.8-5.9s2.4-0.9,5.6-1.6
			c4-1,8.5-3.6,8.6-3.2c0,0-1.4-1.6-4.6-1.4c-4.5,0.3-6.1,0.6-6.1,0.6l6-8.2c0,0-3.5,1.2-6.6,2.2c-2.9,0.9-3.7,5.1-3.7,5.1
			s-0.8-2-3.9-4.2c-3.3-2.4-9.5-3.5-9.5-3.5s3.9,3.8,5.7,6.5c1,1.5,0.4,2.7,0.4,2.7s-3.3-0.4-5.4,0.1c-3.4,0.5-6.3,2.2-6.3,2.2
			l6.2,1.4l-9.2,7c0,0,2.6,0.5,5.4-0.1c4.2-0.9,8.3-3.4,8.3-3.4s-1.3,4.1-1.7,7.5c-0.2,2,1.2,4.1,1.2,4.1s2.2-2.6,3.6-5.6
			c1.4-2.8,2-6.1,2-6.1S-213.4,237.4-210.4,240.9z M-119.3,181l-1.7-1l-5,8.6l1.7,1L-119.3,181z M-198.9,251.6
			c-0.7-1.7-1.5-3.4-2.2-4.9l-4.1,2c0.8,1.6,1.5,3.3,2.3,4.9L-198.9,251.6z M-158.3,192.9l8.6,5l1-1.7l-8.6-5L-158.3,192.9z
			 M-118.8,215.7l8.6,5l1-1.7l-8.6-5L-118.8,215.7z M-130.4,222.1l2.6,9.6l1.9-0.5l-2.6-9.6L-130.4,222.1z M-187.6,226.9h-7.9
			c-0.5,2.5-0.9,5.2-1.1,7.9h7.9C-188.5,232.1-188.1,229.4-187.6,226.9z M-163,199.1c-4-1.8-11.9,0-11.9,0s-0.1-2.5,2-4
			c3.6-2.4,10.4-4.3,10.4-4.3s-6.6-3.2-12.4-1.6c-3.7,1-7.9,4-7.9,4s-1.8-6.2-6-7.9c-5.2-2.1-19.8,0-19.8,0s8.1,1.9,13.9,6
			c4.7,3.3,2,4,2,4s-6.7-1-11.9,0c-5.6,1-11.9,9.9-11.9,9.9s7.4-2.5,11.9-2c3.3,0.4,4,2,4,2s-1.7,0.4-7.9,4c-4.9,2.8-4,7.9-4,7.9
			c-0.1-0.7,5-2.3,11.9-4c5.5-1.3,9.9-2,9.9-2s-2.1,5-3.8,11.9h7.9c1.6-7,3.7-12,3.7-12s3.6,0.7,7.9,4c4.6,3.5,7.9,7.9,7.9,7.9
			s2-7.1,0-9.9c-3.3-4.8-7.9-6-7.9-6s0.6-0.8,7.9-2c3.2-0.5,11.9,0,11.9,0S-159.1,200.9-163,199.1z M-161.2,210.8l0.5,1.9l9.6-2.6
			l-0.5-1.9L-161.2,210.8z M-148.9,228.1l1.7,1l5-8.6l-1.7-1L-148.9,228.1z M-137.8,187.1l-2.6-9.6l-1.8,0.5l2.6,9.6L-137.8,187.1z"
			/>
	</g>
</g>
<g id="sign_x5F_direction" class="st0">
	<g class="st1">
		<path class="st2" d="M-131.7,205.6l17.5-14.5l-17.5-14.5h-34.9V162h-8.7v14.5h-20.4v29.1h20.4v8.7h-35l-17.4,14.6l17.5,14.5h34.9
			v37.8h-29.2v8.7h66.9v-8.7h-29v-37.8h20.4v-29h-20.4v-8.7L-131.7,205.6L-131.7,205.6z M-152.1,220.2v17.4h-55.3l-11.5-8.7
			l11.5-8.7H-152.1z M-189.9,199.8v-17.4h55.3l11.5,8.7l-11.5,8.7H-189.9z M-134.6,188.2h-49.5v5.8h49.5V188.2z M-207.4,231.8h49.5
			V226h-49.5V231.8z"/>
	</g>
</g>
<g id="bag" class="st0">
	<g class="st1">
		<path class="st2" d="M-112.4,200.1h-35.5v-24.5h-46.2v24.5h-35.5c-3,0-5.4,2.4-5.4,5.4v65.3c0,3,2.4,5.4,5.4,5.4h117.1
			c3,0,5.4-2.4,5.4-5.4v-65.2C-107,202.6-109.4,200.1-112.4,200.1z M-188.7,186.5h35.4v13.6h-35.4V186.5z M-215.9,270.9h-10.9
			c-1.5,0-2.7-1.2-2.7-2.7v-59.9c0-1.5,1.2-2.7,2.7-2.7h10.9C-215.9,205.6-215.9,270.9-215.9,270.9z M-134.2,270.9h-73.6v-65.3h73.5
			v65.3H-134.2z M-112.4,268.2c0,1.5-1.2,2.7-2.7,2.7H-126v-65.3h10.9c1.5,0,2.7,1.2,2.7,2.7V268.2z M-176.7,227.5l-2.7-13.3
			l-24,4.9l2.7,13.3L-176.7,227.5z M-151.9,262.8c6.8,0,12.3-5.5,12.3-12.3c0-6.8-5.5-12.3-12.3-12.3c-6.8,0-12.3,5.5-12.3,12.3
			C-164.2,257.3-158.7,262.8-151.9,262.8z"/>
	</g>
</g>
</svg>
