<svg width="172" height="70" viewBox="0 0 172 70" fill="none" xmlns="http://www.w3.org/2000/svg">
<mask id="path-1-inside-1_213_9" fill="white">
<path d="M19.7586 56.95H52.7586L51.0586 70H0.458594V57.75L33.3586 13.35H4.05859V0.699998H52.0086V13.05L19.7586 56.95ZM82.2195 12.4V29.05H106.22V40.55H82.2195V58.25H111.17V70H65.8195V0.699998H111.12L109.47 12.4H82.2195ZM151.38 70L133.13 14.25C133.364 15.75 133.614 17.5667 133.88 19.7C134.18 21.8 134.464 24.15 134.73 26.75C134.997 29.3167 135.214 32.05 135.38 34.95C135.547 37.85 135.63 40.8167 135.63 43.85V70H121.68V0.699998H142.13L159.83 56.15C159.464 54.05 159.08 51.55 158.68 48.65C158.314 45.7167 157.997 42.45 157.73 38.85C157.464 35.25 157.33 31.3833 157.33 27.25V0.699998H171.28V70H151.38Z"/>
</mask>
<path d="M19.7586 56.95H52.7586L51.0586 70H0.458594V57.75L33.3586 13.35H4.05859V0.699998H52.0086V13.05L19.7586 56.95ZM82.2195 12.4V29.05H106.22V40.55H82.2195V58.25H111.17V70H65.8195V0.699998H111.12L109.47 12.4H82.2195ZM151.38 70L133.13 14.25C133.364 15.75 133.614 17.5667 133.88 19.7C134.18 21.8 134.464 24.15 134.73 26.75C134.997 29.3167 135.214 32.05 135.38 34.95C135.547 37.85 135.63 40.8167 135.63 43.85V70H121.68V0.699998H142.13L159.83 56.15C159.464 54.05 159.08 51.55 158.68 48.65C158.314 45.7167 157.997 42.45 157.73 38.85C157.464 35.25 157.33 31.3833 157.33 27.25V0.699998H171.28V70H151.38Z" fill="black"/>
<path d="M19.7586 56.95L16.535 54.5818L11.8568 60.95H19.7586V56.95ZM52.7586 56.95L56.7251 57.4667L57.3135 52.95H52.7586V56.95ZM51.0586 70V74H54.5713L55.0251 70.5167L51.0586 70ZM0.458594 70H-3.54141V74H0.458594V70ZM0.458594 57.75L-2.75525 55.3686L-3.54141 56.4295V57.75H0.458594ZM33.3586 13.35L36.5724 15.7314L41.301 9.35H33.3586V13.35ZM4.05859 13.35H0.058594V17.35H4.05859V13.35ZM4.05859 0.699998V-3.3H0.058594V0.699998H4.05859ZM52.0086 0.699998H56.0086V-3.3H52.0086V0.699998ZM52.0086 13.05L55.2322 15.4182L56.0086 14.3613V13.05H52.0086ZM19.7586 60.95H52.7586V52.95H19.7586V60.95ZM48.7921 56.4333L47.0921 69.4833L55.0251 70.5167L56.7251 57.4667L48.7921 56.4333ZM51.0586 66H0.458594V74H51.0586V66ZM4.45859 70V57.75H-3.54141V70H4.45859ZM3.67244 60.1314L36.5724 15.7314L30.1448 10.9686L-2.75525 55.3686L3.67244 60.1314ZM33.3586 9.35H4.05859V17.35H33.3586V9.35ZM8.05859 13.35V0.699998H0.058594V13.35H8.05859ZM4.05859 4.7H52.0086V-3.3H4.05859V4.7ZM48.0086 0.699998V13.05H56.0086V0.699998H48.0086ZM48.785 10.6818L16.535 54.5818L22.9822 59.3182L55.2322 15.4182L48.785 10.6818ZM82.2195 12.4V8.4H78.2195V12.4H82.2195ZM82.2195 29.05H78.2195V33.05H82.2195V29.05ZM106.22 29.05H110.22V25.05H106.22V29.05ZM106.22 40.55V44.55H110.22V40.55H106.22ZM82.2195 40.55V36.55H78.2195V40.55H82.2195ZM82.2195 58.25H78.2195V62.25H82.2195V58.25ZM111.17 58.25H115.17V54.25H111.17V58.25ZM111.17 70V74H115.17V70H111.17ZM65.8195 70H61.8195V74H65.8195V70ZM65.8195 0.699998V-3.3H61.8195V0.699998H65.8195ZM111.12 0.699998L115.08 1.25857L115.723 -3.3H111.12V0.699998ZM109.47 12.4V16.4H112.945L113.43 12.9586L109.47 12.4ZM78.2195 12.4V29.05H86.2195V12.4H78.2195ZM82.2195 33.05H106.22V25.05H82.2195V33.05ZM102.22 29.05V40.55H110.22V29.05H102.22ZM106.22 36.55H82.2195V44.55H106.22V36.55ZM78.2195 40.55V58.25H86.2195V40.55H78.2195ZM82.2195 62.25H111.17V54.25H82.2195V62.25ZM107.17 58.25V70H115.17V58.25H107.17ZM111.17 66H65.8195V74H111.17V66ZM69.8195 70V0.699998H61.8195V70H69.8195ZM65.8195 4.7H111.12V-3.3H65.8195V4.7ZM107.159 0.141423L105.509 11.8414L113.43 12.9586L115.08 1.25857L107.159 0.141423ZM109.47 8.4H82.2195V16.4H109.47V8.4ZM151.38 70L147.579 71.2444L148.481 74H151.38V70ZM133.13 14.25L136.932 13.0056L129.178 14.8648L133.13 14.25ZM133.88 19.7L129.911 20.1961L129.916 20.231L129.921 20.2657L133.88 19.7ZM134.73 26.75L130.751 27.1581L130.752 27.1634L134.73 26.75ZM135.63 70V74H139.63V70H135.63ZM121.68 70H117.68V74H121.68V70ZM121.68 0.699998V-3.3H117.68V0.699998H121.68ZM142.13 0.699998L145.941 -0.516362L145.052 -3.3H142.13V0.699998ZM159.83 56.15L156.02 57.3664L163.771 55.462L159.83 56.15ZM158.68 48.65L154.711 49.1461L154.715 49.1714L154.718 49.1965L158.68 48.65ZM157.33 0.699998V-3.3H153.33V0.699998H157.33ZM171.28 0.699998H175.28V-3.3H171.28V0.699998ZM171.28 70V74H175.28V70H171.28ZM155.182 68.7556L136.932 13.0056L129.329 15.4944L147.579 71.2444L155.182 68.7556ZM129.178 14.8648C129.403 16.3129 129.648 18.0876 129.911 20.1961L137.85 19.2039C137.58 17.0457 137.324 15.1871 137.083 13.6352L129.178 14.8648ZM129.921 20.2657C130.212 22.303 130.489 24.5992 130.751 27.1581L138.71 26.3419C138.439 23.7008 138.149 21.297 137.84 19.1343L129.921 20.2657ZM130.752 27.1634C131.011 29.6618 131.223 32.3334 131.387 35.1795L139.374 34.7205C139.204 31.7666 138.983 28.9715 138.709 26.3366L130.752 27.1634ZM131.387 35.1795C131.549 37.9998 131.63 40.8899 131.63 43.85H139.63C139.63 40.7435 139.545 37.7002 139.374 34.7205L131.387 35.1795ZM131.63 43.85V70H139.63V43.85H131.63ZM135.63 66H121.68V74H135.63V66ZM125.68 70V0.699998H117.68V70H125.68ZM121.68 4.7H142.13V-3.3H121.68V4.7ZM138.32 1.91636L156.02 57.3664L163.641 54.9336L145.941 -0.516362L138.32 1.91636ZM163.771 55.462C163.415 53.4226 163.039 50.9722 162.643 48.1034L154.718 49.1965C155.122 52.1278 155.513 54.6774 155.89 56.838L163.771 55.462ZM162.65 48.1539C162.293 45.2999 161.982 42.1015 161.72 38.5545L153.741 39.1455C154.012 42.7985 154.335 46.1335 154.711 49.1461L162.65 48.1539ZM161.72 38.5545C161.461 35.0657 161.33 31.2985 161.33 27.25H153.33C153.33 31.4681 153.466 35.4343 153.741 39.1455L161.72 38.5545ZM161.33 27.25V0.699998H153.33V27.25H161.33ZM157.33 4.7H171.28V-3.3H157.33V4.7ZM167.28 0.699998V70H175.28V0.699998H167.28ZM171.28 66H151.38V74H171.28V66Z" fill="black" mask="url(#path-1-inside-1_213_9)"/>
</svg>
